<svg xmlns="http://www.w3.org/2000/svg" xmlns:xlink="http://www.w3.org/1999/xlink" width="2000" zoomAndPan="magnify" viewBox="0 0 1500 749.999995" height="1000" preserveAspectRatio="xMidYMid meet" version="1.0"><defs><clipPath id="461fecc459"><path d="M 6.769531 63 L 429.792969 63 L 429.792969 687.414062 L 6.769531 687.414062 Z M 6.769531 63 " clip-rule="nonzero"/></clipPath><clipPath id="baef64ed4c"><path d="M 212 271 L 419 271 L 419 477 L 212 477 Z M 212 271 " clip-rule="nonzero"/></clipPath><clipPath id="088429552d"><path d="M 315.527344 271.65625 C 258.871094 271.65625 212.945312 317.609375 212.945312 374.261719 C 212.945312 430.917969 258.871094 476.84375 315.527344 476.84375 C 372.183594 476.84375 418.109375 430.917969 418.109375 374.261719 C 418.109375 317.609375 372.183594 271.65625 315.527344 271.65625 " clip-rule="nonzero"/></clipPath></defs><path fill="#bef264" d="M 491.339844 380.253906 C 491.394531 378.8125 491.417969 377.421875 491.417969 375.875 C 491.445312 373.539062 491.445312 371.046875 491.367188 368.503906 C 491.289062 366.984375 491.234375 365.433594 491.15625 363.863281 C 490.972656 360.53125 490.660156 357.148438 490.238281 353.683594 C 489.558594 348.097656 488.664062 342.433594 487.5625 337.265625 C 486.828125 333.804688 485.964844 330.601562 485.175781 327.613281 C 483.5 321.292969 482.082031 317.410156 481.191406 314.890625 C 480.769531 313.683594 480.953125 314.261719 480.429688 312.792969 C 480.0625 311.796875 479.695312 310.878906 479.40625 310.066406 C 478.253906 307.101562 477.464844 305.371094 477.464844 305.371094 C 477.125 304.503906 476.707031 303.613281 476.285156 302.722656 C 475.421875 300.808594 474.554688 298.917969 473.664062 297.03125 L 472.324219 294.328125 L 471.484375 292.703125 C 471.484375 292.703125 471.300781 292.386719 470.960938 291.757812 C 470.960938 291.757812 470.933594 291.679688 470.855469 291.523438 C 470.777344 291.417969 470.726562 291.285156 470.671875 291.207031 C 470.644531 291.179688 470.644531 291.128906 470.644531 291.128906 C 470.671875 291.023438 470.699219 291.050781 470.726562 290.945312 C 476.050781 276.386719 490.03125 263.195312 509.203125 251.574219 C 528.429688 239.980469 549.804688 234.160156 573.308594 234.160156 C 591.195312 234.160156 608.269531 238.09375 624.507812 245.910156 C 640.714844 253.671875 653.621094 264.007812 663.222656 276.859375 L 663.222656 146.238281 L 733.726562 146.238281 L 733.726562 513.867188 L 663.222656 513.867188 L 663.222656 473.160156 C 654.617188 486.746094 642.5 497.683594 626.917969 505.996094 C 611.390625 514.234375 593.347656 518.378906 572.78125 518.378906 C 549.621094 518.378906 528.429688 512.449219 509.203125 500.542969 C 493.335938 490.628906 480.21875 477.40625 469.859375 460.832031 C 469.859375 460.832031 469.386719 460.226562 469.308594 459.753906 C 469.308594 459.730469 469.308594 459.703125 469.308594 459.675781 C 469.308594 459.652344 469.335938 459.625 469.359375 459.570312 C 469.414062 459.492188 469.464844 459.441406 469.492188 459.363281 C 469.597656 459.203125 469.703125 458.96875 469.859375 458.679688 C 471.90625 454.929688 470.566406 457.316406 471.929688 454.796875 C 472.140625 454.378906 472.351562 453.957031 472.535156 453.589844 C 473.007812 452.671875 473.398438 451.914062 473.792969 451.125 C 474.136719 450.390625 474.503906 449.632812 474.894531 448.765625 C 475.394531 447.714844 475.945312 446.535156 476.652344 444.882812 C 477.808594 442.285156 478.644531 440.1875 479.355469 438.429688 C 481.007812 434.234375 481.636719 432.136719 482.421875 429.984375 C 482.421875 429.984375 482.921875 428.464844 483.523438 426.523438 C 483.890625 425.34375 484.257812 424.03125 484.625 422.71875 C 485.019531 421.328125 485.414062 419.992188 485.675781 418.941406 C 485.808594 418.445312 485.992188 417.761719 486.148438 417.160156 C 486.75 414.851562 487.300781 412.175781 487.300781 412.175781 C 487.484375 411.519531 487.5625 410.863281 487.695312 410.234375 C 487.929688 409.132812 488.195312 408.03125 488.378906 406.957031 C 488.929688 403.964844 489.425781 401.082031 489.765625 398.167969 C 489.765625 398.167969 490.109375 395.808594 490.214844 395.046875 C 490.632812 391.558594 490.398438 393.003906 490.527344 391.796875 C 491.105469 386.65625 491.289062 381.515625 491.339844 380.253906 Z M 663.746094 376.214844 C 663.746094 359.375 660.414062 344.898438 653.777344 332.78125 C 647.117188 320.6875 638.171875 311.429688 626.917969 304.976562 C 615.640625 298.550781 603.574219 295.324219 590.722656 295.324219 C 577.765625 295.324219 565.804688 298.472656 554.84375 304.765625 C 543.929688 311.0625 535.066406 320.269531 528.296875 332.359375 C 521.503906 344.398438 518.121094 358.695312 518.121094 375.269531 C 518.121094 391.847656 521.503906 406.378906 528.296875 418.8125 C 535.066406 431.191406 544.035156 440.714844 555.15625 447.347656 C 566.277344 453.933594 578.132812 457.210938 590.722656 457.210938 C 603.574219 457.210938 615.640625 454.011719 626.917969 447.558594 C 638.171875 441.132812 647.117188 431.875 653.777344 419.757812 C 660.414062 407.664062 663.746094 393.160156 663.746094 376.214844 Z M 663.746094 376.214844 " fill-opacity="1" fill-rule="nonzero"/><path fill="#bef264" d="M 1057.5625 370.40625 C 1057.5625 380.347656 1056.878906 389.265625 1055.570312 397.160156 L 854.441406 397.160156 C 856.042969 417.042969 862.96875 432.597656 875.214844 443.847656 C 887.519531 455.128906 902.601562 460.742188 920.4375 460.742188 C 946.296875 460.742188 964.710938 449.671875 975.621094 427.480469 L 1050.636719 427.480469 C 1042.664062 454 1027.398438 475.796875 1004.894531 492.84375 C 982.363281 509.921875 954.742188 518.445312 922.007812 518.445312 C 895.492188 518.445312 871.703125 512.570312 850.667969 500.820312 C 829.605469 489.015625 813.210938 472.359375 801.460938 450.878906 C 789.710938 429.34375 783.835938 404.480469 783.835938 376.28125 C 783.835938 347.824219 789.628906 322.855469 801.25 301.371094 C 812.84375 279.839844 829.078125 263.261719 849.929688 251.640625 C 870.757812 240.046875 894.785156 234.226562 922.007812 234.226562 C 948.160156 234.226562 971.582031 239.863281 992.304688 251.117188 C 1013 262.394531 1029.050781 278.367188 1040.460938 299.0625 C 1051.84375 319.785156 1057.5625 343.546875 1057.5625 370.40625 Z M 985.589844 350.472656 C 985.222656 332.585938 978.769531 318.265625 966.179688 307.5625 C 953.589844 296.808594 938.191406 291.40625 920.015625 291.40625 C 902.730469 291.40625 888.226562 296.625 876.476562 307.039062 C 864.726562 317.476562 857.511719 331.957031 854.863281 350.472656 Z M 985.589844 350.472656 " fill-opacity="1" fill-rule="nonzero"/><path fill="#bef264" d="M 1177.824219 281.371094 C 1186.6875 266.839844 1198.332031 255.429688 1212.761719 247.167969 C 1227.160156 238.851562 1243.65625 234.683594 1262.28125 234.683594 L 1262.28125 307.703125 L 1243.816406 307.703125 C 1221.992188 307.703125 1205.519531 312.847656 1194.398438 323.128906 C 1183.332031 333.410156 1177.824219 351.296875 1177.824219 376.738281 L 1177.824219 513.867188 L 1108.261719 513.867188 L 1108.261719 238.667969 L 1177.824219 238.667969 Z M 1177.824219 281.371094 " fill-opacity="1" fill-rule="nonzero"/><path fill="#bef264" d="M 1372.523438 456.753906 L 1495.167969 456.753906 L 1495.167969 513.933594 L 1293.519531 513.933594 L 1293.519531 457.804688 L 1413.753906 295.8125 L 1294.042969 295.8125 L 1294.042969 238.738281 L 1493.699219 238.738281 L 1493.699219 294.867188 Z M 1372.523438 456.753906 " fill-opacity="1" fill-rule="nonzero"/><g clip-path="url(#461fecc459)"><path fill="#bef264" d="M 276.824219 63.054688 L 356.457031 63.054688 C 365.558594 63.054688 372.929688 70.476562 372.980469 79.628906 C 372.980469 79.683594 372.980469 79.734375 372.980469 79.761719 L 376.757812 134.054688 C 376.835938 135.238281 377.648438 136.207031 378.777344 136.496094 C 395.957031 141.035156 412.375 147.355469 427.851562 155.328125 C 427.851562 155.328125 427.878906 155.328125 427.878906 155.355469 C 429.347656 156.113281 429.792969 158.054688 428.769531 159.367188 L 391.050781 209.28125 C 390.316406 210.277344 388.980469 210.621094 387.824219 210.121094 C 381.398438 207.3125 374.765625 204.847656 367.96875 202.804688 C 359.261719 200.179688 350.265625 198.210938 341.058594 196.925781 C 335.523438 196.167969 329.9375 195.667969 324.273438 195.433594 C 321.753906 195.328125 319.210938 195.273438 316.640625 195.273438 C 311.761719 195.273438 306.910156 195.457031 302.109375 195.851562 C 249.808594 200.101562 203.855469 227.039062 174.003906 266.882812 C 151.421875 297.019531 138.046875 334.527344 138.046875 375.179688 C 138.046875 474.5625 217.992188 555.113281 316.640625 555.113281 C 341.949219 555.113281 366.03125 549.816406 387.851562 540.242188 C 388.980469 539.742188 390.316406 540.109375 391.050781 541.105469 L 394.59375 545.777344 L 428.742188 590.96875 C 429.765625 592.304688 429.347656 594.273438 427.851562 595.035156 C 427.667969 595.140625 427.484375 595.21875 427.300781 595.324219 C 427.066406 595.453125 426.828125 595.558594 426.59375 595.691406 C 418.828125 599.625 410.828125 603.164062 402.59375 606.261719 C 394.828125 609.199219 386.882812 611.742188 378.777344 613.867188 C 377.648438 614.15625 376.835938 615.152344 376.757812 616.332031 L 372.980469 670.601562 C 372.980469 670.652344 372.980469 670.707031 372.980469 670.757812 C 372.929688 679.910156 365.558594 687.308594 356.457031 687.308594 L 276.824219 687.308594 C 267.722656 687.308594 260.351562 679.910156 260.324219 670.757812 C 260.324219 670.707031 260.324219 670.652344 260.324219 670.601562 L 256.550781 616.332031 C 256.46875 615.152344 255.65625 614.15625 254.53125 613.867188 C 232.707031 608.121094 212.0625 599.414062 193.046875 588.1875 C 192.050781 587.609375 190.765625 587.714844 189.902344 588.503906 L 149.113281 624.199219 C 149.089844 624.253906 149.035156 624.28125 149.007812 624.304688 C 142.558594 630.757812 132.144531 630.730469 125.71875 624.253906 L 91.382812 589.683594 L 69.402344 567.519531 C 62.953125 561.066406 62.953125 550.550781 69.351562 544.070312 C 69.378906 544.019531 69.402344 543.992188 69.429688 543.941406 L 104.890625 502.863281 C 105.652344 502 105.757812 500.714844 105.179688 499.691406 C 94.058594 480.542969 85.402344 459.769531 79.710938 437.765625 C 79.398438 436.636719 78.425781 435.796875 77.273438 435.71875 L 23.371094 431.941406 C 23.320312 431.941406 23.292969 431.941406 23.242188 431.941406 C 14.140625 431.886719 6.792969 424.464844 6.792969 415.3125 L 6.792969 335.078125 C 6.792969 325.898438 14.140625 318.472656 23.242188 318.449219 C 23.292969 318.449219 23.320312 318.449219 23.371094 318.421875 L 77.273438 314.644531 C 78.425781 314.566406 79.398438 313.726562 79.710938 312.597656 C 85.402344 290.617188 94.058594 269.820312 105.179688 250.671875 C 105.757812 249.675781 105.652344 248.390625 104.890625 247.496094 L 98.910156 240.574219 L 69.429688 206.421875 C 69.402344 206.394531 69.378906 206.34375 69.351562 206.316406 C 62.953125 199.8125 62.953125 189.320312 69.402344 182.84375 L 91.382812 160.679688 L 125.71875 126.109375 C 132.144531 119.628906 142.558594 119.628906 149.007812 126.054688 C 149.035156 126.109375 149.089844 126.136719 149.113281 126.160156 L 189.902344 161.886719 C 190.765625 162.644531 192.050781 162.75 193.046875 162.175781 C 209.46875 152.496094 227.09375 144.652344 245.664062 139.011719 C 248.601562 138.121094 251.539062 137.28125 254.53125 136.496094 C 255.65625 136.207031 256.46875 135.210938 256.550781 134.054688 L 257.101562 126.003906 L 257.570312 119.289062 L 258.960938 99.171875 L 260.324219 79.761719 C 260.324219 79.734375 260.324219 79.683594 260.324219 79.628906 C 260.351562 70.476562 267.722656 63.054688 276.824219 63.054688 " fill-opacity="1" fill-rule="nonzero"/></g><g clip-path="url(#baef64ed4c)"><g clip-path="url(#088429552d)"><path fill="#e0e0e0" d="M 212.945312 271.65625 L 418.109375 271.65625 L 418.109375 476.84375 L 212.945312 476.84375 Z M 212.945312 271.65625 " fill-opacity="1" fill-rule="nonzero"/></g></g></svg>