<svg xmlns="http://www.w3.org/2000/svg" xmlns:xlink="http://www.w3.org/1999/xlink" width="2000" zoomAndPan="magnify" viewBox="0 0 1500 749.999995" height="1000" preserveAspectRatio="xMidYMid meet" version="1.0"><defs><clipPath id="ef0e2781a2"><path d="M 19.710938 74.601562 L 436 74.601562 L 436 689 L 19.710938 689 Z M 19.710938 74.601562 " clip-rule="nonzero"/></clipPath><clipPath id="f2414255f2"><path d="M 222.5625 279.988281 L 424.445312 279.988281 L 424.445312 481.882812 L 222.5625 481.882812 Z M 222.5625 279.988281 " clip-rule="nonzero"/></clipPath><clipPath id="1843fbdcc3"><path d="M 323.503906 279.988281 C 267.75 279.988281 222.5625 325.203125 222.5625 380.949219 C 222.5625 436.699219 267.75 481.882812 323.503906 481.882812 C 379.257812 481.882812 424.445312 436.699219 424.445312 380.949219 C 424.445312 325.203125 379.257812 279.988281 323.503906 279.988281 " clip-rule="nonzero"/></clipPath></defs><path fill="#c1ff72" d="M 496.503906 386.902344 C 496.566406 385.476562 496.597656 384.109375 496.597656 382.589844 C 496.628906 380.3125 496.628906 377.855469 496.535156 375.332031 C 496.476562 373.84375 496.414062 372.328125 496.324219 370.777344 C 496.171875 367.5 495.835938 364.160156 495.441406 360.757812 C 494.773438 355.261719 493.894531 349.675781 492.800781 344.605469 C 492.070312 341.203125 491.222656 338.046875 490.460938 335.101562 C 488.792969 328.875 487.394531 325.078125 486.515625 322.589844 C 486.121094 321.40625 486.300781 321.984375 485.785156 320.523438 C 485.421875 319.554688 485.058594 318.644531 484.785156 317.851562 C 483.628906 314.90625 482.871094 313.207031 482.871094 313.207031 C 482.535156 312.355469 482.113281 311.476562 481.71875 310.625 C 480.835938 308.714844 479.984375 306.859375 479.136719 305.007812 L 477.800781 302.367188 L 476.980469 300.757812 C 476.980469 300.757812 476.796875 300.453125 476.464844 299.816406 C 476.464844 299.816406 476.433594 299.757812 476.371094 299.605469 C 476.28125 299.484375 476.21875 299.359375 476.191406 299.269531 C 476.160156 299.269531 476.160156 299.210938 476.160156 299.210938 C 476.191406 299.089844 476.191406 299.117188 476.21875 299.027344 C 481.472656 284.695312 495.230469 271.730469 514.089844 260.28125 C 533.007812 248.863281 554.050781 243.15625 577.191406 243.15625 C 594.773438 243.15625 611.597656 247.011719 627.570312 254.695312 C 643.511719 262.347656 656.207031 272.519531 665.652344 285.152344 L 665.652344 156.648438 L 735.039062 156.648438 L 735.039062 518.382812 L 665.652344 518.382812 L 665.652344 478.328125 C 657.207031 491.691406 645.273438 502.46875 629.9375 510.636719 C 614.664062 518.746094 596.898438 522.8125 576.675781 522.8125 C 553.871094 522.8125 533.007812 516.984375 514.089844 505.261719 C 498.480469 495.515625 485.574219 482.488281 475.371094 466.183594 C 475.371094 466.183594 474.914062 465.605469 474.824219 465.121094 C 474.824219 465.121094 474.824219 465.089844 474.824219 465.0625 C 474.824219 465.03125 474.855469 465 474.882812 464.9375 C 474.945312 464.878906 475.003906 464.816406 475.003906 464.757812 C 475.128906 464.605469 475.21875 464.363281 475.371094 464.089844 C 477.40625 460.382812 476.070312 462.722656 477.40625 460.261719 C 477.617188 459.839844 477.828125 459.441406 478.011719 459.078125 C 478.46875 458.167969 478.863281 457.410156 479.257812 456.648438 C 479.589844 455.921875 479.957031 455.160156 480.320312 454.3125 C 480.835938 453.277344 481.351562 452.125 482.050781 450.484375 C 483.203125 447.933594 484.023438 445.871094 484.722656 444.140625 C 486.363281 440.011719 486.96875 437.945312 487.730469 435.851562 C 487.730469 435.851562 488.246094 434.332031 488.824219 432.417969 C 489.1875 431.265625 489.550781 429.988281 489.917969 428.683594 C 490.3125 427.316406 490.675781 426.011719 490.949219 424.980469 C 491.070312 424.492188 491.253906 423.824219 491.402344 423.21875 C 492.011719 420.941406 492.558594 418.328125 492.558594 418.328125 C 492.710938 417.660156 492.800781 417.023438 492.921875 416.417969 C 493.164062 415.324219 493.410156 414.230469 493.589844 413.167969 C 494.136719 410.253906 494.621094 407.398438 494.957031 404.542969 C 494.957031 404.542969 495.292969 402.207031 495.414062 401.476562 C 495.808594 398.015625 495.59375 399.441406 495.714844 398.257812 C 496.292969 393.21875 496.476562 388.148438 496.503906 386.902344 Z M 666.167969 382.925781 C 666.167969 366.375 662.917969 352.105469 656.359375 340.203125 C 649.828125 328.296875 641.023438 319.1875 629.9375 312.84375 C 618.855469 306.496094 606.980469 303.339844 594.316406 303.339844 C 581.5625 303.339844 569.8125 306.4375 559 312.628906 C 548.28125 318.824219 539.535156 327.875 532.886719 339.777344 C 526.203125 351.617188 522.863281 365.675781 522.863281 382.011719 C 522.863281 398.320312 526.203125 412.621094 532.886719 424.859375 C 539.535156 437.035156 548.371094 446.386719 559.304688 452.914062 C 570.265625 459.414062 581.929688 462.632812 594.316406 462.632812 C 606.980469 462.632812 618.855469 459.472656 629.9375 453.128906 C 641.023438 446.8125 649.828125 437.703125 656.359375 425.769531 C 662.917969 413.867188 666.167969 399.59375 666.167969 382.925781 Z M 666.167969 382.925781 " fill-opacity="1" fill-rule="nonzero"/><path fill="#c1ff72" d="M 1053.804688 377.15625 C 1053.804688 386.933594 1053.136719 395.707031 1051.828125 403.480469 L 853.925781 403.480469 C 855.476562 423.035156 862.308594 438.339844 874.363281 449.421875 C 886.449219 460.507812 901.300781 466.03125 918.851562 466.03125 C 944.300781 466.03125 962.429688 455.132812 973.179688 433.300781 L 1047 433.300781 C 1039.136719 459.414062 1024.105469 480.851562 1001.964844 497.640625 C 979.796875 514.433594 952.621094 522.8125 920.398438 522.8125 C 894.316406 522.8125 870.902344 517.042969 850.191406 505.476562 C 829.480469 493.847656 813.324219 477.480469 801.785156 456.347656 C 790.214844 435.152344 784.417969 410.679688 784.417969 382.925781 C 784.417969 354.929688 790.125 330.363281 801.574219 309.230469 C 812.960938 288.035156 828.964844 271.730469 849.460938 260.28125 C 869.960938 248.863281 893.617188 243.15625 920.398438 243.15625 C 946.152344 243.15625 969.199219 248.683594 989.578125 259.765625 C 1009.953125 270.878906 1025.742188 286.578125 1036.980469 306.953125 C 1048.183594 327.328125 1053.804688 350.707031 1053.804688 377.15625 Z M 982.988281 357.539062 C 982.621094 339.929688 976.277344 325.839844 963.886719 315.300781 C 951.496094 304.734375 936.34375 299.421875 918.457031 299.421875 C 901.421875 299.421875 887.148438 304.554688 875.609375 314.785156 C 864.039062 325.078125 856.933594 339.320312 854.320312 357.539062 Z M 982.988281 357.539062 " fill-opacity="1" fill-rule="nonzero"/><path fill="#c1ff72" d="M 1172.144531 289.613281 C 1180.859375 275.3125 1192.335938 264.078125 1206.519531 255.941406 C 1220.699219 247.773438 1236.945312 243.671875 1255.257812 243.671875 L 1255.257812 315.515625 L 1237.097656 315.515625 C 1215.628906 315.515625 1199.414062 320.585938 1188.449219 330.699219 C 1177.578125 340.808594 1172.144531 358.421875 1172.144531 383.441406 L 1172.144531 518.382812 L 1103.695312 518.382812 L 1103.695312 247.589844 L 1172.144531 247.589844 Z M 1172.144531 289.613281 " fill-opacity="1" fill-rule="nonzero"/><path fill="#c1ff72" d="M 1363.761719 462.117188 L 1484.4375 462.117188 L 1484.4375 518.382812 L 1286.019531 518.382812 L 1286.019531 463.148438 L 1404.332031 303.734375 L 1286.535156 303.734375 L 1286.535156 247.589844 L 1483.011719 247.589844 L 1483.011719 302.824219 Z M 1363.761719 462.117188 " fill-opacity="1" fill-rule="nonzero"/><g clip-path="url(#ef0e2781a2)"><path fill="#c1ff72" d="M 285.484375 74.722656 L 363.832031 74.722656 C 372.789062 74.722656 380.046875 82.011719 380.109375 91.03125 C 380.109375 91.089844 380.109375 91.121094 380.109375 91.152344 L 383.8125 144.59375 C 383.90625 145.746094 384.695312 146.6875 385.816406 146.992188 C 402.730469 151.457031 418.886719 157.679688 434.101562 165.515625 C 434.101562 165.515625 434.132812 165.515625 434.132812 165.542969 C 435.589844 166.273438 436.015625 168.1875 435.011719 169.492188 L 397.902344 218.589844 C 397.175781 219.59375 395.839844 219.925781 394.714844 219.441406 C 388.398438 216.679688 381.871094 214.25 375.1875 212.214844 C 366.59375 209.632812 357.757812 207.722656 348.679688 206.445312 C 343.242188 205.6875 337.746094 205.199219 332.160156 204.988281 C 329.699219 204.867188 327.179688 204.804688 324.660156 204.804688 C 319.859375 204.804688 315.09375 204.988281 310.355469 205.382812 C 258.882812 209.574219 213.667969 236.082031 184.300781 275.28125 C 162.074219 304.949219 148.894531 341.839844 148.894531 381.863281 C 148.894531 479.636719 227.574219 558.886719 324.660156 558.886719 C 349.558594 558.886719 373.277344 553.695312 394.746094 544.28125 C 395.839844 543.765625 397.175781 544.128906 397.902344 545.132812 L 401.367188 549.71875 L 434.980469 594.171875 C 435.984375 595.507812 435.589844 597.421875 434.101562 598.179688 C 433.917969 598.300781 433.738281 598.359375 433.554688 598.453125 C 433.34375 598.605469 433.097656 598.695312 432.855469 598.816406 C 425.234375 602.703125 417.339844 606.195312 409.261719 609.230469 C 401.609375 612.117188 393.773438 614.636719 385.816406 616.703125 C 384.695312 617.003906 383.90625 617.976562 383.8125 619.128906 L 380.109375 672.542969 C 380.109375 672.601562 380.109375 672.632812 380.109375 672.695312 C 380.046875 681.710938 372.789062 688.96875 363.832031 688.96875 L 285.484375 688.96875 C 276.527344 688.96875 269.269531 681.710938 269.238281 672.695312 C 269.238281 672.632812 269.238281 672.601562 269.238281 672.542969 L 265.535156 619.128906 C 265.441406 617.976562 264.652344 617.003906 263.527344 616.703125 C 242.058594 611.054688 221.746094 602.492188 203.039062 591.4375 C 202.066406 590.890625 200.789062 590.984375 199.941406 591.742188 L 159.796875 626.875 C 159.765625 626.933594 159.734375 626.964844 159.703125 626.996094 C 153.355469 633.339844 143.09375 633.3125 136.777344 626.933594 L 102.976562 592.925781 L 81.355469 571.09375 C 75.011719 564.746094 75.011719 554.421875 81.296875 548.046875 C 81.328125 547.988281 81.355469 547.957031 81.386719 547.894531 L 116.277344 507.480469 C 117.039062 506.628906 117.128906 505.386719 116.550781 504.351562 C 105.621094 485.527344 97.117188 465.089844 91.5 443.441406 C 91.195312 442.316406 90.222656 441.496094 89.101562 441.40625 L 36.050781 437.703125 C 36.019531 437.703125 35.988281 437.703125 35.929688 437.703125 C 26.96875 437.640625 19.742188 430.355469 19.742188 421.335938 L 19.742188 342.386719 C 19.742188 333.339844 26.96875 326.050781 35.929688 326.019531 C 35.988281 326.019531 36.019531 326.019531 36.050781 325.992188 L 89.101562 322.285156 C 90.222656 322.195312 91.195312 321.375 91.5 320.253906 C 97.117188 298.632812 105.621094 278.167969 116.550781 259.339844 C 117.128906 258.339844 117.039062 257.09375 116.277344 256.214844 L 110.386719 249.382812 L 81.386719 215.796875 C 81.355469 215.765625 81.328125 215.707031 81.296875 215.675781 C 75.011719 209.269531 75.011719 198.945312 81.355469 192.597656 L 102.976562 170.765625 L 136.777344 136.757812 C 143.09375 130.382812 153.355469 130.382812 159.703125 136.699219 C 159.734375 136.757812 159.765625 136.789062 159.796875 136.820312 L 199.941406 171.953125 C 200.789062 172.710938 202.066406 172.800781 203.039062 172.253906 C 219.191406 162.71875 236.53125 155.007812 254.8125 149.453125 C 257.699219 148.570312 260.582031 147.75 263.527344 146.992188 C 264.652344 146.6875 265.441406 145.714844 265.535156 144.59375 L 266.082031 136.667969 L 266.535156 130.046875 L 267.902344 110.25 L 269.238281 91.152344 C 269.238281 91.121094 269.238281 91.089844 269.238281 91.03125 C 269.269531 82.011719 276.527344 74.722656 285.484375 74.722656 " fill-opacity="1" fill-rule="nonzero"/></g><g clip-path="url(#f2414255f2)"><g clip-path="url(#1843fbdcc3)"><path fill="#fcfbfc" d="M 222.5625 279.988281 L 424.445312 279.988281 L 424.445312 481.882812 L 222.5625 481.882812 Z M 222.5625 279.988281 " fill-opacity="1" fill-rule="nonzero"/></g></g><path fill="#fcfbfc" d="M 1034.914062 112.347656 L 1034.914062 191.839844 L 1018.910156 191.839844 L 1018.910156 157.984375 L 984.929688 157.984375 L 984.929688 191.839844 L 968.925781 191.839844 L 968.925781 112.347656 L 984.929688 112.347656 L 984.929688 145.078125 L 1018.910156 145.078125 L 1018.910156 112.347656 Z M 1034.914062 112.347656 " fill-opacity="1" fill-rule="nonzero"/><path fill="#fcfbfc" d="M 1046.421875 160.046875 C 1046.421875 153.703125 1047.667969 148.054688 1050.25 143.105469 C 1052.769531 138.15625 1056.230469 134.390625 1060.574219 131.75 C 1064.949219 129.078125 1069.867188 127.742188 1075.210938 127.742188 C 1079.980469 127.742188 1084.109375 128.710938 1087.601562 130.625 C 1091.125 132.476562 1093.949219 134.847656 1096.074219 137.730469 L 1096.074219 128.773438 L 1112.199219 128.773438 L 1112.199219 191.839844 L 1096.074219 191.839844 L 1096.074219 182.640625 C 1094.070312 185.617188 1091.246094 188.074219 1087.601562 189.988281 C 1084.019531 191.902344 1079.859375 192.871094 1075.121094 192.871094 C 1069.804688 192.871094 1064.949219 191.535156 1060.574219 188.835938 C 1056.230469 186.101562 1052.769531 182.246094 1050.25 177.296875 C 1047.667969 172.285156 1046.421875 166.515625 1046.421875 160.046875 Z M 1096.074219 160.261719 C 1096.074219 156.40625 1095.316406 153.09375 1093.796875 150.332031 C 1092.277344 147.597656 1090.214844 145.472656 1087.601562 144.046875 C 1085.050781 142.527344 1082.289062 141.769531 1079.339844 141.769531 C 1076.394531 141.769531 1073.632812 142.496094 1071.082031 143.925781 C 1068.621094 145.382812 1066.585938 147.507812 1065.007812 150.242188 C 1063.488281 153.003906 1062.730469 156.285156 1062.730469 160.046875 C 1062.730469 163.84375 1063.488281 167.152344 1065.007812 170.070312 C 1066.585938 172.894531 1068.652344 175.046875 1071.203125 176.566406 C 1073.722656 178.085938 1076.457031 178.84375 1079.339844 178.84375 C 1082.289062 178.84375 1085.050781 178.117188 1087.601562 176.65625 C 1090.214844 175.171875 1092.277344 173.015625 1093.796875 170.25 C 1095.316406 167.519531 1096.074219 164.179688 1096.074219 160.261719 Z M 1096.074219 160.261719 " fill-opacity="1" fill-rule="nonzero"/><path fill="#fcfbfc" d="M 1143.71875 138.582031 C 1145.722656 135.210938 1148.367188 132.570312 1151.675781 130.714844 C 1154.984375 128.804688 1158.75 127.832031 1163.035156 127.832031 L 1163.035156 144.5625 L 1158.8125 144.5625 C 1153.769531 144.5625 1149.976562 145.777344 1147.457031 148.175781 C 1144.964844 150.515625 1143.71875 154.613281 1143.71875 160.441406 L 1143.71875 191.839844 L 1127.714844 191.839844 L 1127.714844 128.773438 L 1143.71875 128.773438 Z M 1143.71875 138.582031 " fill-opacity="1" fill-rule="nonzero"/><path fill="#fcfbfc" d="M 1192.277344 141.859375 L 1192.277344 172.316406 C 1192.277344 174.472656 1192.792969 176.019531 1193.824219 176.960938 C 1194.859375 177.964844 1196.558594 178.417969 1198.988281 178.417969 L 1206.429688 178.417969 L 1206.429688 191.839844 L 1196.40625 191.839844 C 1182.925781 191.839844 1176.183594 185.3125 1176.183594 172.226562 L 1176.183594 141.859375 L 1168.742188 141.859375 L 1168.742188 128.773438 L 1176.183594 128.773438 L 1176.183594 113.164062 L 1192.277344 113.164062 L 1192.277344 128.773438 L 1206.429688 128.773438 L 1206.429688 141.859375 Z M 1192.277344 141.859375 " fill-opacity="1" fill-rule="nonzero"/><path fill="#fcfbfc" d="M 1213.746094 160.261719 C 1213.746094 153.792969 1215.082031 148.117188 1217.753906 143.226562 C 1220.457031 138.246094 1224.101562 134.453125 1228.808594 131.75 C 1233.484375 129.078125 1238.859375 127.742188 1245.023438 127.742188 C 1252.796875 127.742188 1259.207031 129.683594 1264.339844 133.601562 C 1269.5 137.546875 1272.933594 143.015625 1274.753906 150.027344 L 1257.503906 150.027344 C 1256.59375 147.296875 1255.046875 145.140625 1252.859375 143.621094 C 1250.734375 142.042969 1248.0625 141.253906 1244.902344 141.253906 C 1240.289062 141.253906 1236.644531 142.890625 1233.972656 146.203125 C 1231.328125 149.511719 1230.054688 154.21875 1230.054688 160.261719 C 1230.054688 166.304688 1231.328125 170.980469 1233.972656 174.289062 C 1236.644531 177.597656 1240.289062 179.238281 1244.902344 179.238281 C 1251.3125 179.238281 1255.5 176.355469 1257.503906 170.585938 L 1274.753906 170.585938 C 1272.933594 177.386719 1269.5 182.820312 1264.339844 186.890625 C 1259.175781 190.867188 1252.707031 192.871094 1245.023438 192.871094 C 1238.859375 192.871094 1233.484375 191.535156 1228.808594 188.835938 C 1224.101562 186.160156 1220.457031 182.398438 1217.753906 177.476562 C 1215.082031 172.527344 1213.746094 166.789062 1213.746094 160.261719 Z M 1213.746094 160.261719 " fill-opacity="1" fill-rule="nonzero"/><path fill="#fcfbfc" d="M 1286.382812 107.609375 L 1302.386719 107.609375 L 1302.386719 191.839844 L 1286.382812 191.839844 Z M 1286.382812 107.609375 " fill-opacity="1" fill-rule="nonzero"/><path fill="#fcfbfc" d="M 1326.105469 121.210938 C 1323.339844 121.210938 1321.035156 120.332031 1319.179688 118.539062 C 1317.328125 116.75 1316.386719 114.5625 1316.386719 111.921875 C 1316.386719 109.25 1317.328125 107.03125 1319.179688 105.210938 C 1321.035156 103.449219 1323.339844 102.539062 1326.105469 102.539062 C 1328.898438 102.539062 1331.265625 103.449219 1333.121094 105.210938 C 1334.972656 107.03125 1335.914062 109.25 1335.914062 111.921875 C 1335.914062 114.5625 1334.972656 116.75 1333.121094 118.539062 C 1331.265625 120.332031 1328.898438 121.210938 1326.105469 121.210938 Z M 1334.03125 128.773438 L 1334.03125 191.839844 L 1318.027344 191.839844 L 1318.027344 128.773438 Z M 1334.03125 128.773438 " fill-opacity="1" fill-rule="nonzero"/><path fill="#fcfbfc" d="M 1378.578125 141.859375 L 1367.554688 141.859375 L 1367.554688 191.839844 L 1351.429688 191.839844 L 1351.429688 141.859375 L 1344.203125 141.859375 L 1344.203125 128.773438 L 1351.429688 128.773438 L 1351.429688 125.554688 C 1351.429688 117.871094 1353.648438 112.195312 1358.050781 108.519531 C 1362.425781 104.875 1369.105469 103.144531 1377.972656 103.359375 L 1377.972656 116.777344 C 1374.054688 116.71875 1371.320312 117.386719 1369.804688 118.753906 C 1368.285156 120.148438 1367.554688 122.609375 1367.554688 126.191406 L 1367.554688 128.773438 L 1378.578125 128.773438 Z M 1378.578125 141.859375 " fill-opacity="1" fill-rule="nonzero"/><path fill="#fcfbfc" d="M 1417.875 141.859375 L 1406.820312 141.859375 L 1406.820312 191.839844 L 1390.726562 191.839844 L 1390.726562 141.859375 L 1383.5 141.859375 L 1383.5 128.773438 L 1390.726562 128.773438 L 1390.726562 125.554688 C 1390.726562 117.871094 1392.914062 112.195312 1397.347656 108.519531 C 1401.71875 104.875 1408.371094 103.144531 1417.265625 103.359375 L 1417.265625 116.777344 C 1413.347656 116.71875 1410.585938 117.386719 1409.097656 118.753906 C 1407.578125 120.148438 1406.820312 122.609375 1406.820312 126.191406 L 1406.820312 128.773438 L 1417.875 128.773438 Z M 1417.875 141.859375 " fill-opacity="1" fill-rule="nonzero"/><path fill="#fcfbfc" d="M 1486.867188 158.894531 C 1486.867188 161.171875 1486.714844 163.238281 1486.472656 165.089844 L 1440.316406 165.089844 C 1440.710938 169.644531 1442.289062 173.226562 1445.054688 175.839844 C 1447.878906 178.390625 1451.371094 179.664062 1455.5 179.664062 C 1461.390625 179.664062 1465.613281 177.113281 1468.070312 172.011719 L 1485.320312 172.011719 C 1483.46875 178.085938 1479.945312 183.066406 1474.78125 186.980469 C 1469.621094 190.898438 1463.273438 192.871094 1455.804688 192.871094 C 1449.730469 192.871094 1444.292969 191.535156 1439.496094 188.835938 C 1434.667969 186.160156 1430.871094 182.335938 1428.136719 177.386719 C 1425.4375 172.4375 1424.097656 166.730469 1424.097656 160.261719 C 1424.097656 153.792969 1425.4375 148.054688 1428.136719 143.105469 C 1430.8125 138.15625 1434.515625 134.390625 1439.28125 131.75 C 1444.082031 129.078125 1449.609375 127.742188 1455.804688 127.742188 C 1461.785156 127.742188 1467.160156 129.046875 1471.898438 131.65625 C 1476.664062 134.207031 1480.308594 137.851562 1482.949219 142.589844 C 1485.5625 147.355469 1486.867188 152.792969 1486.867188 158.894531 Z M 1470.347656 154.371094 C 1470.289062 150.300781 1468.800781 147.023438 1465.914062 144.5625 C 1463.03125 142.074219 1459.507812 140.828125 1455.378906 140.828125 C 1451.371094 140.828125 1448.058594 142.042969 1445.355469 144.441406 C 1442.683594 146.808594 1441.042969 150.089844 1440.40625 154.371094 Z M 1470.347656 154.371094 " fill-opacity="1" fill-rule="nonzero"/></svg>